<?xml version="1.0" encoding="UTF-8" standalone="no"?>
<svg
   version="1.1"
   id="svg9441"
   width="45"
   height="45"
   viewBox="0 0 45 45"
   sodipodi:docname="AddGroupIcon.svg"
   inkscape:version="1.4 (e7c3feb1, 2024-10-09)"
   inkscape:export-filename="../icons/AddGroupIcon.png"
   inkscape:export-xdpi="96"
   inkscape:export-ydpi="96"
   xml:space="preserve"
   xmlns:inkscape="http://www.inkscape.org/namespaces/inkscape"
   xmlns:sodipodi="http://sodipodi.sourceforge.net/DTD/sodipodi-0.dtd"
   xmlns="http://www.w3.org/2000/svg"
   xmlns:svg="http://www.w3.org/2000/svg"
   xmlns:rdf="http://www.w3.org/1999/02/22-rdf-syntax-ns#"
   xmlns:cc="http://creativecommons.org/ns#"
   xmlns:dc="http://purl.org/dc/elements/1.1/"><metadata
     id="metadata9447"><rdf:RDF><cc:Work
         rdf:about=""><dc:format>image/svg+xml</dc:format><dc:type
           rdf:resource="http://purl.org/dc/dcmitype/StillImage" /></cc:Work></rdf:RDF></metadata><defs
     id="defs9445"><mask
       maskUnits="userSpaceOnUse"
       id="mask1214"><rect
         style="fill:#ffffff;stroke-width:4"
         id="rect1216"
         width="14.263841"
         height="12.532392"
         x="54.994114"
         y="-20.117786" /></mask><mask
       maskUnits="userSpaceOnUse"
       id="mask1214-7"><rect
         style="fill:#ffffff;stroke-width:4"
         id="rect1216-1"
         width="14.263841"
         height="12.532392"
         x="54.994114"
         y="-20.117786" /></mask><mask
       maskUnits="userSpaceOnUse"
       id="mask1214-0"><rect
         style="fill:#ffffff;stroke-width:4"
         id="rect1216-4"
         width="14.263841"
         height="12.532392"
         x="54.994114"
         y="-20.117786" /></mask><mask
       maskUnits="userSpaceOnUse"
       id="mask1214-7-4"><rect
         style="fill:#ffffff;stroke-width:4"
         id="rect1216-1-8"
         width="14.263841"
         height="12.532392"
         x="54.994114"
         y="-20.117786" /></mask></defs><sodipodi:namedview
     pagecolor="#ffffff"
     bordercolor="#666666"
     borderopacity="1"
     objecttolerance="10"
     gridtolerance="10"
     guidetolerance="10"
     inkscape:pageopacity="0"
     inkscape:pageshadow="2"
     inkscape:window-width="1792"
     inkscape:window-height="1067"
     id="namedview9443"
     showgrid="false"
     inkscape:zoom="4.7995924"
     inkscape:cx="44.482944"
     inkscape:cy="65.630573"
     inkscape:window-x="1769"
     inkscape:window-y="287"
     inkscape:window-maximized="0"
     inkscape:current-layer="svg9441"
     inkscape:pagecheckerboard="0"
     inkscape:document-rotation="0"
     inkscape:showpageshadow="2"
     inkscape:deskcolor="#d1d1d1"
     showguides="true"><sodipodi:guide
       position="81.673602,72.085633"
       orientation="0,-1"
       id="guide1"
       inkscape:locked="false" /></sodipodi:namedview><g
     id="g1"
     transform="translate(-3.8285184,-2.1931689)"><path
       fill="currentColor"
       d="m 48.506668,-2.5811043 c 4.429055,0 8.128619,3.31744901 8.614946,7.729135 0.03474,0.243163 -0.05211,0.486327 -0.208426,0.677384 -0.15632,0.191058 -0.416852,0.277902 -0.660016,0.277902 H 40.760165 a 0.83370444,0.83370444 0 0 1 -0.642647,-0.29527 0.8823372,0.8823372 0 0 1 -0.208426,-0.677385 c 0.45159,-4.39431699 4.168522,-7.711766 8.597576,-7.711766 z m 0.0799,-12.1581897 a 5.2106528,5.2106528 0 1 1 0,10.4213047 5.2106528,5.2106528 0 0 1 0,-10.4213047 z m 13.026629,-5.210653 a 0.86844213,0.86844213 0 0 1 0.868442,0.868442 v 4.342211 h 4.342211 a 0.86844213,0.86844213 0 0 1 0.156319,1.722989 l -0.156319,0.01389 h -4.342211 v 4.3422107 a 0.86844213,0.86844213 0 0 1 -0.712123,0.854547 l -0.156319,0.0139 a 0.86844213,0.86844213 0 0 1 -0.868442,-0.868442 V -13.00241 h -4.342211 a 0.86844213,0.86844213 0 0 1 -0.15632,-1.722989 l 0.15632,-0.01389 h 4.342211 v -4.342216 a 0.86844213,0.86844213 0 0 1 0.712122,-0.854547 z"
       id="path1101-8"
       style="fill:#43b324;fill-opacity:1;stroke:#43b324;stroke-width:1.36468;stroke-dasharray:none;stroke-opacity:1"
       mask="url(#mask1214-7-4)"
       transform="matrix(0.89250282,0,0,0.89250282,-20.827743,44.168712)" /><path
       style="fill:none;fill-opacity:1;stroke:#03363d;stroke-width:2.49416;stroke-linejoin:round;stroke-dasharray:none;stroke-opacity:1;paint-order:stroke fill markers"
       d="M 38.477143,25.186911 V 18.258088 H 24.965937 V 13.234692 H 13.706601 v 22.691894 h 12.645102"
       id="path1"
       sodipodi:nodetypes="ccccccc" /></g></svg>
