<?xml version="1.0" encoding="UTF-8" standalone="no"?>
<svg
   xmlns:dc="http://purl.org/dc/elements/1.1/"
   xmlns:cc="http://creativecommons.org/ns#"
   xmlns:rdf="http://www.w3.org/1999/02/22-rdf-syntax-ns#"
   xmlns:svg="http://www.w3.org/2000/svg"
   xmlns="http://www.w3.org/2000/svg"
   xmlns:sodipodi="http://sodipodi.sourceforge.net/DTD/sodipodi-0.dtd"
   xmlns:inkscape="http://www.inkscape.org/namespaces/inkscape"
   version="1.1"
   id="svg9441"
   width="45"
   height="45"
   viewBox="0 0 45 45"
   sodipodi:docname="AddIcon.svg"
   inkscape:version="1.0.2 (e86c8708, 2021-01-15)"
   inkscape:export-filename="/Users/abigger/Code/andrewbigger/projectus/app/src/main/resources/icons/AddIcon16x16.png"
   inkscape:export-xdpi="34.130001"
   inkscape:export-ydpi="34.130001">
  <metadata
     id="metadata9447">
    <rdf:RDF>
      <cc:Work
         rdf:about="">
        <dc:format>image/svg+xml</dc:format>
        <dc:type
           rdf:resource="http://purl.org/dc/dcmitype/StillImage" />
      </cc:Work>
    </rdf:RDF>
  </metadata>
  <defs
     id="defs9445">
    <mask
       maskUnits="userSpaceOnUse"
       id="mask1214">
      <rect
         style="fill:#ffffff;stroke-width:4"
         id="rect1216"
         width="14.263841"
         height="12.532392"
         x="54.994114"
         y="-20.117786" />
    </mask>
  </defs>
  <sodipodi:namedview
     pagecolor="#ffffff"
     bordercolor="#666666"
     borderopacity="1"
     objecttolerance="10"
     gridtolerance="10"
     guidetolerance="10"
     inkscape:pageopacity="0"
     inkscape:pageshadow="2"
     inkscape:window-width="1718"
     inkscape:window-height="1368"
     id="namedview9443"
     showgrid="false"
     inkscape:zoom="32.526352"
     inkscape:cx="26.594511"
     inkscape:cy="13.827307"
     inkscape:window-x="1339"
     inkscape:window-y="25"
     inkscape:window-maximized="0"
     inkscape:current-layer="svg9441"
     inkscape:pagecheckerboard="0"
     inkscape:document-rotation="0" />
  <path
     fill="currentColor"
     d="m 48.506668,-2.5811043 c 4.429055,0 8.128619,3.31744901 8.614946,7.729135 0.03474,0.243163 -0.05211,0.486327 -0.208426,0.677384 -0.15632,0.191058 -0.416852,0.277902 -0.660016,0.277902 H 40.760165 a 0.83370444,0.83370444 0 0 1 -0.642647,-0.29527 0.8823372,0.8823372 0 0 1 -0.208426,-0.677385 c 0.45159,-4.39431699 4.168522,-7.711766 8.597576,-7.711766 z m 0.0799,-12.1581897 a 5.2106528,5.2106528 0 1 1 0,10.4213047 5.2106528,5.2106528 0 0 1 0,-10.4213047 z m 13.026629,-5.210653 a 0.86844213,0.86844213 0 0 1 0.868442,0.868442 v 4.342211 h 4.342211 a 0.86844213,0.86844213 0 0 1 0.156319,1.722989 l -0.156319,0.01389 h -4.342211 v 4.3422107 a 0.86844213,0.86844213 0 0 1 -0.712123,0.854547 l -0.156319,0.0139 a 0.86844213,0.86844213 0 0 1 -0.868442,-0.868442 V -13.00241 h -4.342211 a 0.86844213,0.86844213 0 0 1 -0.15632,-1.722989 l 0.15632,-0.01389 h 4.342211 v -4.342216 a 0.86844213,0.86844213 0 0 1 0.712122,-0.854547 z"
     id="path1101"
     style="fill:#43b324;fill-opacity:1;stroke-width:1.73688"
     mask="url(#mask1214)"
     transform="matrix(2.0250504,0,0,2.0250504,-101.72469,50.380228)" />
</svg>
